# xmcd
# 
# Track frame offsets:
#     150
#     15475
#     27314
#     41133
#     55182
#     68476
#     80795
#     92850
#     106253
#     122510
#     133719
#     146729
#     160815
#     170375
#     182231
#     193974
#     205343
#     216234
# 
# Disc length: 3042
# 
# Revision: 1
# Processed by: cddbd v1.5.2PL0 Copyright (c) Steve Scherf et al.
# Submitted via: fre:ac v1.0.31
# 
DISCID=070be012
DTITLE=R&B - The Jewel/Paula Soul Story Disc 1
DYEAR=2011
DGENRE=R&B
TTITLE0=Nothing Takes The Place Of You
TTITLE1=Oh My Love (Come Back To Me)
TTITLE2=Guess I'll Have To Take What's Left
TTITLE3=I Had My Heart Set On You
TTITLE4=Why Did You Leave Me
TTITLE5=Don't Pity Me
TTITLE6=I'll Do It For You
TTITLE7=I Can't Stand To See You Go
TTITLE8=The Love Of My Man
TTITLE9=What You Gonna Do
TTITLE10=Put It Where I Can Get It
TTITLE11=Without A Woman
TTITLE12=Congratulations Baby
TTITLE13=In The Same Old Way
TTITLE14=I Need Someone
TTITLE15=I Wanna Weep
TTITLE16=Losers Win Sometimes
TTITLE17=How Can A Broke Man Survive
EXTD=
EXTT0=
EXTT1=
EXTT2=
EXTT3=
EXTT4=
EXTT5=
EXTT6=
EXTT7=
EXTT8=
EXTT9=
EXTT10=
EXTT11=
EXTT12=
EXTT13=
EXTT14=
EXTT15=
EXTT16=
EXTT17=
PLAYORDER=
